<svg 
 xmlns="http://www.w3.org/2000/svg"
 xmlns:xlink="http://www.w3.org/1999/xlink"
 width="16px" height="16px">
<path fill-rule="evenodd"  fill="rgb(179, 179, 179)"
 d="M9.414,8.000 L15.071,13.657 C15.462,14.047 15.462,14.681 15.071,15.071 C14.681,15.462 14.047,15.462 13.657,15.071 L8.000,9.414 L2.343,15.071 C1.953,15.462 1.319,15.462 0.929,15.071 C0.538,14.681 0.538,14.047 0.929,13.657 L6.586,8.000 L0.929,2.343 C0.538,1.953 0.538,1.319 0.929,0.929 C1.319,0.538 1.953,0.538 2.343,0.929 L8.000,6.586 L13.657,0.929 C14.047,0.538 14.681,0.538 15.071,0.929 C15.462,1.319 15.462,1.953 15.071,2.343 L9.414,8.000 Z"/>
</svg>